<?xml version="1.0" encoding="UTF-8"?>
<svg height="600" width="800" xmlns="http://www.w3.org/2000/svg" xmlns:xlink="http://www.w3.org/1999/xlink">
    <style>
        
    </style>
    <g id="Notes" font-family="'LucidaGrande', 'Lucida Grande', sans-serif" font-size="13">
        <rect fill="white" height="600.0" width="800.0" x="0.0" y="0.0" />
        <g font-size="13">
            <text x="18.0" y="176.0">Small</text>
            <text x="18.0" y="376.0">Medium</text>
            <text x="18.0" y="576.0">Large</text>
        </g>
        <g font-size="9">
            <text x="250.0" y="30.0">Ultralight</text>
            <text x="450.0" y="30.0">Regular</text>
            <text x="650.0" y="30.0">Black</text>
            <text id="template-version" fill="#505050" text-anchor="end" x="785.0" y="575.0">Template v.3.0</text>
            <a href="https://github.com/swhitty/SwiftDraw">
                <text fill="#505050" text-anchor="end" x="785.0" y="590.0">https://github.com/swhitty/SwiftDraw</text>
            </a>
        </g>
    </g>
    <g id="Guides" stroke="rgb(39, 170, 225)" stroke-width="0.5">
        <path id="Capline-S" d="M18,76 l800,0" />
        <path id="H-reference" d="M85,145.8 L87.7,145.8 L113.4,79.3 L114.1,79.3 L114.1,76 L112.1,76 L85,145.8 Z M95.7,121.5 L131,121.5 L130.3,119.3 L96.5,119.3 L95.7,121.5 Z M139.1,145.8 L141.8,145.8 L114.6,76 L113.5,76 L113.5,79.3 L139.1,145.8 Z" stroke="none" />
        <path id="Baseline-S" d="M18,146 l800,0" />
        <path id="left-margin-Ultralight-S" d="M220.1,56 l0,110" />
        <path id="right-margin-Ultralight-S" d="M309.9,56 l0,110" />
        <path id="left-margin-Regular-S" d="M420.1,56 l0,110" />
        <path id="right-margin-Regular-S" d="M509.9,56 l0,110" />
        <path id="left-margin-Black-S" d="M616.8,56 l0,110" />
        <path id="right-margin-Black-S" d="M713.2,56 l0,110" />
        <path id="Capline-M" d="M18,276 l800,0" />
        <path id="Baseline-M" d="M18,346 l800,0" />
        <path id="Capline-L" d="M18,476 l800,0" />
        <path id="Baseline-L" d="M18,546 l800,0" />
    </g>
    <g id="Symbols">
        <g id="Ultralight-S">
            <path class="monochrome-0 multicolor-0:tintColor hierarchical-0:secondary" d="M253.4,89.5 C253.5,89.5 253.6,89.4 253.7,89.2 C254.2,85.3 254.3,84.1 259.7,83.2 C259.9,83.1 260,83 260,82.8 C260,82.6 259.9,82.5 259.7,82.4 C254.3,81.4 254.2,80.3 253.7,76.3 C253.6,76.1 253.5,76 253.4,76 C253.2,76 253.1,76.1 253,76.3 C252.5,80.3 252.4,81.4 247.1,82.4 C246.9,82.5 246.7,82.6 246.7,82.8 C246.7,83 246.9,83.1 247.1,83.2 C252.4,84.1 252.5,85.3 253,89.2 C253.1,89.4 253.2,89.5 253.4,89.5 Z M240.5,106.7 C240.8,106.7 241.1,106.5 241.1,106.1 C241.8,100.2 241.8,99 248.9,98.2 C249.3,98.1 249.4,97.9 249.4,97.6 C249.4,97.3 249.3,97 248.9,97 C241.8,96.2 241.8,94.9 241.1,89.1 C241.1,88.7 240.8,88.5 240.5,88.5 C240.1,88.5 239.9,88.7 239.9,89.1 C239.2,94.9 239.2,96.2 232.1,97 C231.7,97 231.5,97.3 231.5,97.6 C231.5,97.9 231.7,98.1 232.1,98.2 C239.2,99 239.2,100.2 239.9,106.1 C239.9,106.5 240.1,106.7 240.5,106.7 Z M283.2,146 C283.7,146 283.9,145.8 283.9,145.4 C285.8,133.5 288.1,131.6 299.3,129.8 C299.7,129.7 299.9,129.4 299.9,129.1 C299.9,128.7 299.7,128.4 299.3,128.3 C288.1,126.6 285.9,124.6 283.9,112.8 C283.9,112.4 283.7,112.1 283.2,112.1 C282.7,112.1 282.4,112.4 282.4,112.8 C280.5,124.6 278.2,126.6 267.1,128.3 C266.7,128.4 266.4,128.7 266.4,129.1 C266.4,129.4 266.7,129.7 267.1,129.8 C278.2,131.6 280.5,133.4 282.4,145.4 C282.4,145.8 282.7,146 283.2,146 Z" />
            <path class="monochrome-1 multicolor-1:tintColor hierarchical-1:primary" d="M238,137.9 L283.7,91.3 L279.9,87.3 L234.1,133.8 L230.2,140.9 C229.9,141.5 230.5,142 231,141.7 Z M286.3,88.9 L288.9,86.2 C290.4,84.7 290.4,83.3 289.1,82 L288.9,81.8 C287.7,80.6 286.3,80.7 285,82.1 L282.3,84.8 Z" />
        </g>
        <g id="Regular-S">
            <path class="monochrome-0 multicolor-0:tintColor hierarchical-0:secondary" d="M454.3,89.5 C454.7,89.5 455.1,89.1 455.2,88.7 C456.1,84.4 455.7,84.5 460.2,83.7 C460.8,83.6 461.1,83.2 461.1,82.8 C461.1,82.3 460.8,81.9 460.2,81.8 C455.7,80.9 456,81 455.2,76.8 C455.1,76.4 454.8,76 454.3,76 C453.7,76 453.5,76.4 453.3,76.8 C452.3,81 452.8,80.9 448.3,81.8 C447.8,81.9 447.5,82.3 447.5,82.8 C447.5,83.2 447.8,83.6 448.3,83.7 C452.8,84.4 452.3,84.4 453.3,88.6 C453.5,89.1 453.7,89.5 454.3,89.5 Z M442,107.5 C442.6,107.5 443,107.1 443.1,106.6 C444.3,99.4 444.3,99 452,97.8 C452.5,97.7 452.9,97.3 452.9,96.8 C452.9,96.2 452.5,95.8 452,95.7 C444.3,94.5 444.3,94.1 443.1,86.9 C443,86.4 442.6,85.9 442,85.9 C441.4,85.9 441,86.4 441,86.9 C439.8,94.1 439.8,94.5 432.1,95.7 C431.5,95.8 431.2,96.2 431.2,96.8 C431.2,97.3 431.5,97.7 432.1,97.8 C439.8,99 439.8,99.4 441,106.6 C441,107.1 441.4,107.5 442,107.5 Z M483.3,146 C484.1,146 484.7,145.5 484.8,144.6 C486.3,135.1 488,132.6 498.5,131.1 C499.3,131 499.9,130.4 499.9,129.6 C499.9,128.8 499.3,128.3 498.5,128.2 C487.9,126.7 486.9,124.3 484.8,114.5 C484.6,113.8 484.1,113.2 483.3,113.2 C482.5,113.2 482,113.8 481.8,114.5 C480.3,124.3 478.7,126.7 468.1,128.2 C467.3,128.3 466.8,128.8 466.8,129.6 C466.8,130.4 467.3,131 468.1,131.1 C478.7,132.6 479.8,134.9 481.8,144.7 C482,145.5 482.6,146 483.3,146 Z" />
            <path class="monochrome-1 multicolor-1:tintColor hierarchical-1:primary" d="M440.7,137.7 L480,98.8 L473,91.8 L433.7,130.7 L430.2,139.2 C429.9,140.1 430.9,141.2 431.9,140.9 Z M483.4,95.5 L487.4,91.6 C489.4,89.6 489.5,87.5 487.8,85.7 L486.3,84.3 C484.5,82.4 482.3,82.6 480.3,84.6 L476.3,88.5 Z" />
        </g>
        <g id="Black-S">
            <path class="monochrome-0 multicolor-0:tintColor hierarchical-0:secondary" d="M652.1,88.1 C652.6,88.1 652.9,87.7 653,87.3 C653.7,83.7 653.7,83.7 657.5,82.8 C658,82.8 658.2,82.4 658.2,82 C658.2,81.5 658,81.3 657.5,81.2 C653.7,80.4 653.7,80.4 653,76.8 C652.9,76.3 652.6,76 652.1,76 C651.6,76 651.3,76.3 651.2,76.8 C650.6,80.4 650.6,80.4 646.7,81.2 C646.2,81.3 645.9,81.5 645.9,82 C645.9,82.4 646.2,82.7 646.7,82.8 C650.6,83.7 650.6,83.7 651.2,87.3 C651.3,87.7 651.6,88.1 652.1,88.1 Z M640.4,105.7 C641.1,105.7 641.7,105.1 641.8,104.4 C642.6,98.5 642.6,98.5 649.1,97.3 C649.9,97.1 650.3,96.6 650.3,95.9 C650.3,95.3 649.8,94.7 649.1,94.6 C642.7,93.7 642.5,93.6 641.8,87.4 C641.7,86.8 641.1,86.2 640.4,86.2 C639.7,86.2 639.1,86.8 639,87.4 C638.3,93.4 638.2,93.4 631.7,94.6 C631,94.7 630.5,95.3 630.5,95.9 C630.5,96.7 631,97.1 631.8,97.3 C638.1,98.3 638.3,98.4 639,104.4 C639.1,105.1 639.7,105.7 640.4,105.7 Z M686.2,146 C687.1,146 687.7,145.4 687.9,144.5 C689.8,133.8 691.3,132.3 701.6,131 C702.6,130.9 703.2,130.2 703.2,129.4 C703.2,128.5 702.6,127.7 701.6,127.6 C690.8,126.3 689.4,124.7 687.9,114.1 C687.8,113.3 687.1,112.7 686.2,112.7 C685.4,112.7 684.7,113.3 684.5,114.1 C682.6,124.9 681,125.8 670.8,127.6 C669.9,127.8 669.2,128.5 669.2,129.4 C669.2,130.2 669.9,130.9 670.8,131 C681.5,132.4 683.2,134 684.5,144.5 C684.6,145.4 685.3,146 686.2,146 Z" />
            <path class="monochrome-1 multicolor-1:tintColor hierarchical-1:primary" d="M639.4,140 L681.5,98.7 L672.5,89.9 L630.5,131.2 L626.9,140.6 C626.2,142.5 628.2,144.2 629.8,143.6 Z M685.9,94.4 L690.5,89.9 C692.7,87.7 692.8,85.1 690.7,83 L688.6,80.9 C686.5,78.8 683.7,79 681.5,81.1 L676.9,85.6 Z" />
        </g>
    </g>
</svg>